<?xml version="1.0" encoding="utf-8"?>
<!-- Generator: Adobe Illustrator 24.2.1, SVG Export Plug-In . SVG Version: 6.00 Build 0)  -->
<svg version="1.1" id="Layer_1" xmlns="http://www.w3.org/2000/svg" xmlns:xlink="http://www.w3.org/1999/xlink" x="0px" y="0px"
	 viewBox="0 0 572 857.6" style="enable-background:new 0 0 572 857.6;" xml:space="preserve">
<style type="text/css">
	.st0{fill:#FFFFFF;}
</style>
<path class="st0" d="M178.1,472.1V354h-35.3V237.9h23.5v92.6h11.8v-92.6h23.2v234.2H178.1z"/>
<path class="st0" d="M247.8,472.1V371.4c-0.1-3.2-2.7-5.8-5.9-5.9h-5.9v106.6h-23.5V272.9H242c16.1,0.1,29.1,13.2,29.1,29.4v34.1
	c0,6.3-2,12.4-5.9,17.4c3.9,5.1,5.9,11.3,5.9,17.6v100.7H247.8z M283.1,261.1h-70.2v-23.2h128.5v23.2h-34.7v211h-23.5L283.1,261.1z
	 M247.8,336.4v-34.1c0-3.2-2.6-5.9-5.9-5.9h-5.9V342h5.9C245.1,342,247.7,339.5,247.8,336.4L247.8,336.4z M353.9,472.1V330.5h-11.8
	v141.6h-23.5v-199h23.5v34.1h11.8v-69.4h23.2v234.3H353.9z"/>
<path class="st0" d="M214.6,712.2V576.5c-0.1-3.2-2.7-5.8-5.9-5.9h-5.9v141.6h-23.5V478h29.4c16.1,0.1,29.1,13.3,29.1,29.4v34.1
	c0,6.4-2.1,12.5-5.9,17.6c3.8,5,5.9,11.1,5.9,17.3v135.7H214.6z M214.6,541.5v-34.1c0-3.2-2.6-5.9-5.9-5.9h-5.9v45.9h5.9
	C211.9,547.3,214.4,544.7,214.6,541.5z"/>
<path class="st0" d="M278.1,712.2c-15.1,0-27.7-11.5-29.1-27.1V505.4c1.1-16,13.4-26.6,29.7-27.4c15.1,0,27.7,12,28.8,27.4v179.7
	c-1,14.5-12.4,26-26.9,27.1L278.1,712.2z M284.2,683.1V507.4c0-3.2-2.6-5.9-5.9-5.9c-3.2-0.1-5.8,2.4-5.9,5.6c0,0.1,0,0.2,0,0.3
	v175.7c0,3.2,2.6,5.9,5.9,5.9C281.6,688.9,284.1,686.3,284.2,683.1z"/>
<path class="st0" d="M412.4,203.1v480c0,16.8-14,29.1-29.4,29.1c-6.2,0.1-12.4-1.8-17.4-5.6c-5.3,3.6-11.5,5.6-17.9,5.6
	c-16-0.1-29-13.1-29.1-29.1V478.3h23.5v204.8c0,3.1,2.5,5.7,5.6,5.9c3.3,0.1,6.1-2.5,6.2-5.8c0,0,0,0,0,0V478.3h23.2v204.8
	c-0.1,3.2,2.4,5.8,5.6,5.9c0.1,0,0.2,0,0.3,0c3.2,0,5.9-2.6,5.9-5.9V226.6H142.4v-23.5H412.4z"/>
<polygon class="st0" points="260.4,723.2 260.4,746.7 142.1,746.7 142.1,366.4 165.6,366.4 165.6,723.2 "/>
<path class="st0" d="M272.4,742.8l3.4-4c2,1.7,4.5,2.6,7.1,2.6c1.6,0,2.5-0.6,2.5-1.5v-0.1c0-0.9-0.7-1.4-3.7-2.1
	c-4.6-1.1-8.2-2.4-8.2-6.8v-0.1c0-4,3.2-7,8.4-7c3.2-0.1,6.4,0.9,9,2.9l-3,4.3c-1.8-1.3-3.9-2.1-6.1-2.2c-1.5,0-2.2,0.6-2.2,1.4v0.1
	c0,1,0.8,1.4,3.8,2.1c5,1.1,8.1,2.7,8.1,6.8v0.1c0,4.5-3.5,7.1-8.8,7.1C278.9,746.5,275.2,745.2,272.4,742.8z"/>
<path class="st0" d="M299,729.6h-6.5v-5.3h19.1v5.3H305v16.5h-6L299,729.6z"/>
<path class="st0" d="M314,736.5v-12.2h6.1v12.1c0,3.1,1.6,4.6,4,4.6s4-1.4,4-4.5v-12.3h6.1v12.1c0,7-4,10.1-10.2,10.1
	S314,743.3,314,736.5z"/>
<path class="st0" d="M337.8,724.3h8.4c7.8,0,12.3,4.5,12.3,10.8v0.1c0,6.3-4.6,11-12.4,11h-8.3L337.8,724.3z M346.3,740.7
	c3.6,0,6-2,6-5.5v-0.1c0-3.5-2.4-5.5-6-5.5h-2.5v11.1H346.3z"/>
<path class="st0" d="M361.8,724.3h6.1v21.8h-6.1V724.3z"/>
<path class="st0" d="M371.1,735.2L371.1,735.2c0-6.4,5.2-11.4,11.5-11.4c0.1,0,0.2,0,0.3,0c6.7,0,11.7,5,11.7,11.3v0.1
	c0,6.3-5.2,11.4-11.5,11.3c-0.1,0-0.2,0-0.3,0C376.1,746.5,371.1,741.5,371.1,735.2z M388.4,735.2L388.4,735.2
	c0.1-3.2-2.3-5.8-5.4-5.9c-0.1,0-0.1,0-0.2,0c-3.1,0-5.5,2.5-5.5,5.6c0,0.1,0,0.2,0,0.2v0.1c-0.1,3.1,2.3,5.7,5.4,5.9
	c0.1,0,0.1,0,0.2,0c3.1,0,5.6-2.5,5.5-5.6C388.4,735.4,388.4,735.3,388.4,735.2L388.4,735.2z"/>
<path class="st0" d="M395.9,742.8l3.4-4c2,1.7,4.5,2.6,7.1,2.6c1.6,0,2.5-0.6,2.5-1.5v-0.1c0-0.9-0.7-1.4-3.7-2.1
	c-4.6-1.1-8.2-2.4-8.2-6.8v-0.1c0-4,3.2-7,8.4-7c3.2-0.1,6.4,0.9,9,2.9l-3,4.3c-1.8-1.3-3.9-2.1-6.1-2.2c-1.5,0-2.2,0.6-2.2,1.4v0.1
	c0,1,0.8,1.4,3.8,2.1c5,1.1,8.1,2.7,8.1,6.8v0.1c0,4.5-3.5,7.1-8.8,7.1C402.4,746.5,398.8,745.2,395.9,742.8z"/>
</svg>
